<svg width="113" height="16" viewBox="0 0 113 16" fill="none" xmlns="http://www.w3.org/2000/svg">
<path d="M0.87677 15.6175V1.15752H4.35677L8.14677 12.2075L11.9768 1.15752H15.4368V15.6175H12.9668V4.27752L9.15677 15.6175H7.12677L3.34677 4.34752V15.6175H0.87677Z" fill="black"/>
<path d="M24.7032 15.8175C23.3698 15.8175 22.2165 15.5242 21.2432 14.9375C20.2765 14.3509 19.5265 13.5042 18.9932 12.3975C18.4665 11.2909 18.2032 9.96419 18.2032 8.41752C18.2032 6.85752 18.4698 5.52085 19.0032 4.40752C19.5365 3.29419 20.2898 2.44085 21.2632 1.84752C22.2432 1.25419 23.3898 0.95752 24.7032 0.95752C26.0165 0.95752 27.1532 1.25419 28.1132 1.84752C29.0798 2.44085 29.8265 3.29419 30.3532 4.40752C30.8798 5.52085 31.1432 6.85752 31.1432 8.41752C31.1432 9.96419 30.8832 11.2909 30.3632 12.3975C29.8432 13.4975 29.0998 14.3442 28.1332 14.9375C27.1665 15.5242 26.0232 15.8175 24.7032 15.8175ZM24.7032 13.7775C25.4898 13.7775 26.1665 13.5942 26.7332 13.2275C27.2998 12.8542 27.7332 12.2775 28.0332 11.4975C28.3398 10.7109 28.4932 9.69419 28.4932 8.44752C28.4932 7.18085 28.3398 6.14752 28.0332 5.34752C27.7265 4.54085 27.2898 3.94752 26.7232 3.56752C26.1565 3.18752 25.4832 2.99752 24.7032 2.99752C23.9165 2.99752 23.2365 3.19085 22.6632 3.57752C22.0965 3.95752 21.6565 4.55085 21.3432 5.35752C21.0298 6.15752 20.8732 7.18752 20.8732 8.44752C20.8732 9.69419 21.0298 10.7109 21.3432 11.4975C21.6565 12.2775 22.0965 12.8542 22.6632 13.2275C23.2365 13.5942 23.9165 13.7775 24.7032 13.7775Z" fill="black"/>
<path d="M33.9041 1.15752C33.9641 1.15752 34.1408 1.15752 34.4341 1.15752C34.7274 1.15752 35.0741 1.15752 35.4741 1.15752C35.8808 1.15752 36.2908 1.16085 36.7041 1.16752C37.1241 1.16752 37.4874 1.17085 37.7941 1.17752C39.5541 1.21085 40.9841 1.51419 42.0841 2.08752C43.1908 2.65419 44.0008 3.46419 44.5141 4.51752C45.0341 5.56419 45.2941 6.82752 45.2941 8.30752C45.2941 9.85419 45.0174 11.1709 44.4641 12.2575C43.9174 13.3442 43.0774 14.1775 41.9441 14.7575C40.8174 15.3309 39.3841 15.6175 37.6441 15.6175H33.9041V1.15752ZM36.3741 3.16752V13.6075H37.6841C38.6774 13.6075 39.5541 13.4375 40.3141 13.0975C41.0741 12.7509 41.6674 12.1909 42.0941 11.4175C42.5274 10.6442 42.7441 9.61085 42.7441 8.31752C42.7441 7.06419 42.5441 6.06085 42.1441 5.30752C41.7441 4.55419 41.1708 4.01085 40.4241 3.67752C39.6774 3.33752 38.7841 3.16752 37.7441 3.16752H36.3741Z" fill="black"/>
<path d="M59.1843 10.3375C59.1843 11.4842 58.9976 12.4675 58.6243 13.2875C58.2509 14.1009 57.6543 14.7275 56.8343 15.1675C56.0209 15.6009 54.9476 15.8175 53.6143 15.8175C52.2809 15.8175 51.2043 15.5975 50.3843 15.1575C49.5709 14.7109 48.9809 14.0709 48.6143 13.2375C48.2476 12.3975 48.0643 11.3842 48.0643 10.1975V1.15752H50.5543V10.4475C50.5543 11.5675 50.8276 12.3942 51.3743 12.9275C51.9276 13.4609 52.6743 13.7275 53.6143 13.7275C54.2476 13.7275 54.7976 13.6109 55.2643 13.3775C55.7309 13.1442 56.0909 12.7875 56.3443 12.3075C56.5976 11.8209 56.7243 11.2009 56.7243 10.4475V1.15752H59.1843V10.3375Z" fill="black"/>
<path d="M62.3516 1.15752H64.8116V13.5175H71.3416V15.6175H62.3416L62.3516 1.15752Z" fill="black"/>
<path d="M73.1076 15.6175L78.3075 1.15752H80.9376L86.1276 15.6175H83.6876L82.3976 11.9875H76.8775L75.5575 15.6175H73.1076ZM77.4376 9.82752H81.7976L79.6275 3.52752L77.4376 9.82752Z" fill="black"/>
<path d="M99.3726 15.6175H96.8326L94.3426 9.74752H90.9826V15.6175H88.5526V1.15752H94.4226C95.5292 1.15752 96.4392 1.33085 97.1525 1.67752C97.8726 2.01752 98.4059 2.50085 98.7525 3.12752C99.0992 3.74752 99.2726 4.47419 99.2726 5.30752C99.2726 6.08085 99.1459 6.73085 98.8926 7.25752C98.6392 7.77752 98.3092 8.20419 97.9025 8.53752C97.5025 8.86419 97.0725 9.13085 96.6125 9.33752L99.3726 15.6175ZM93.8726 7.81752C94.7925 7.81752 95.5092 7.60419 96.0226 7.17752C96.5425 6.75085 96.8026 6.15752 96.8026 5.39752C96.8026 4.65085 96.5626 4.07419 96.0826 3.66752C95.6025 3.26085 94.9692 3.05752 94.1825 3.05752H90.9826V7.81752H93.8726Z" fill="black"/>
<path d="M107.131 15.8175C106.431 15.8175 105.748 15.7309 105.081 15.5575C104.415 15.3775 103.808 15.1142 103.261 14.7675C102.721 14.4142 102.271 13.9775 101.911 13.4575C101.551 12.9309 101.331 12.3175 101.251 11.6175H103.771C103.878 12.1042 104.088 12.5142 104.401 12.8475C104.715 13.1809 105.105 13.4342 105.571 13.6075C106.045 13.7809 106.561 13.8675 107.121 13.8675C107.721 13.8675 108.261 13.7875 108.741 13.6275C109.228 13.4675 109.611 13.2342 109.891 12.9275C110.178 12.6209 110.321 12.2442 110.321 11.7975C110.321 11.4042 110.218 11.0709 110.011 10.7975C109.805 10.5242 109.515 10.3009 109.141 10.1275C108.775 9.94752 108.345 9.80419 107.851 9.69752L105.191 9.11752C104.118 8.89752 103.268 8.47085 102.641 7.83752C102.015 7.20419 101.695 6.36085 101.681 5.30752C101.675 4.43419 101.905 3.67419 102.371 3.02752C102.845 2.37419 103.488 1.87085 104.301 1.51752C105.115 1.15752 106.035 0.977519 107.061 0.977519C108.261 0.977519 109.271 1.17419 110.091 1.56752C110.918 1.95419 111.541 2.47419 111.961 3.12752C112.388 3.78085 112.605 4.49752 112.611 5.27752H110.151C110.091 4.70419 109.918 4.24752 109.631 3.90752C109.351 3.56752 108.991 3.32419 108.551 3.17752C108.111 3.03085 107.625 2.95752 107.091 2.95752C106.691 2.95752 106.318 3.00419 105.971 3.09752C105.625 3.19085 105.321 3.32752 105.061 3.50752C104.801 3.68752 104.598 3.90752 104.451 4.16752C104.311 4.42085 104.241 4.71085 104.241 5.03752C104.241 5.50419 104.395 5.88419 104.701 6.17752C105.015 6.46419 105.598 6.70752 106.451 6.90752L109.051 7.48752C109.858 7.64752 110.508 7.88752 111.001 8.20752C111.495 8.52752 111.871 8.89419 112.131 9.30752C112.391 9.71419 112.565 10.1309 112.651 10.5575C112.738 10.9842 112.781 11.3909 112.781 11.7775C112.781 12.5309 112.548 13.2142 112.081 13.8275C111.621 14.4409 110.968 14.9275 110.121 15.2875C109.281 15.6409 108.285 15.8175 107.131 15.8175Z" fill="black"/>
</svg>
